<svg width="44" height="37" viewBox="0 0 44 37" fill="none" xmlns="http://www.w3.org/2000/svg">
<path d="M0 0V37H36.912V0H0ZM9.51112 7.23572H27.4009V11.2689H9.51112V7.23572ZM33.1186 19.3537H23.2944L30.7247 26.8017L27.8796 29.6535L20.4678 22.224V32.0439H16.4442V22.1963L9.01393 29.6443L6.16888 26.7925L13.5992 19.3445H3.7934V15.3113H33.1186V19.3445V19.3537Z" fill="#141414"/>
<path d="M39.9294 36.7587C39.6252 36.5978 39.3887 36.3565 39.2366 36.0509C39.0845 35.7452 39 35.3913 39 34.9891C39 34.587 39.0845 34.233 39.2366 33.9274C39.3887 33.6217 39.6252 33.3965 39.9294 33.2196C40.2336 33.0587 40.5884 32.9783 40.994 32.9783C41.3995 32.9783 41.7544 33.0587 42.0585 33.2196C42.3627 33.3804 42.5993 33.6217 42.7683 33.9274C42.9373 34.233 43.0217 34.587 43.0217 34.9891C43.0217 35.3913 42.9373 35.7452 42.7683 36.0509C42.5993 36.3565 42.3627 36.5817 42.0585 36.7587C41.7544 36.9196 41.3995 37 40.994 37C40.5884 37 40.2336 36.9196 39.9294 36.7587ZM42.2275 36.2439C42.5317 35.9383 42.6838 35.52 42.6838 35.0052C42.6838 34.4904 42.5317 34.0561 42.2444 33.7504C41.9403 33.4448 41.5347 33.3 41.0278 33.3C40.5208 33.3 40.0984 33.4448 39.8111 33.7504C39.5069 34.0561 39.3718 34.4743 39.3718 35.0052C39.3718 35.5361 39.5238 35.9543 39.8111 36.26C40.0984 36.5656 40.5039 36.7104 41.0278 36.7104C41.5516 36.7104 41.9572 36.5656 42.2444 36.26L42.2275 36.2439ZM40.0815 33.8952H41.163C41.4502 33.8952 41.6699 33.9435 41.8051 34.0561C41.9403 34.1687 42.0248 34.3135 42.0248 34.5065C42.0248 34.6513 41.9741 34.7639 41.8896 34.8604C41.8051 34.9569 41.6699 35.0213 41.5009 35.0374H41.3995V35.0535C41.6023 35.0696 41.7544 35.1178 41.8389 35.2143C41.9403 35.2948 41.9741 35.4235 41.9741 35.5843V35.8096C41.9741 35.8096 41.9741 35.89 41.9741 35.9222C41.9741 35.9543 41.991 35.9865 42.0079 36.0187V36.0669H41.6192C41.6192 36.0669 41.5685 35.9543 41.5685 35.8578V35.6326C41.5685 35.5039 41.5347 35.4074 41.4671 35.343C41.3995 35.2787 41.2643 35.2465 41.0785 35.2465H40.4532V36.083H40.0646V33.9113L40.0815 33.8952ZM41.0785 34.957C41.4333 34.957 41.6023 34.8283 41.6023 34.5709C41.6023 34.4422 41.5685 34.3617 41.484 34.2974C41.3995 34.233 41.2643 34.2009 41.0785 34.2009H40.4532V34.957H41.0785Z" fill="#141414"/>
</svg>
